<?xml version="1.0" encoding="UTF-8" standalone="no"?>
<!-- Created with Inkscape (http://www.inkscape.org/) -->

<svg
   xmlns:dc="http://purl.org/dc/elements/1.1/"
   xmlns:cc="http://creativecommons.org/ns#"
   xmlns:rdf="http://www.w3.org/1999/02/22-rdf-syntax-ns#"
   xmlns:svg="http://www.w3.org/2000/svg"
   xmlns="http://www.w3.org/2000/svg"
   xmlns:sodipodi="http://sodipodi.sourceforge.net/DTD/sodipodi-0.dtd"
   xmlns:inkscape="http://www.inkscape.org/namespaces/inkscape"
   width="684.23877"
   height="278.75751"
   id="svg3040"
   version="1.1"
   inkscape:version="0.48.5 r10040"
   sodipodi:docname="footer-en.svg">
  <defs
     id="defs3042" />
  <sodipodi:namedview
     id="base"
     pagecolor="#ffffff"
     bordercolor="#666666"
     borderopacity="1.0"
     inkscape:pageopacity="0.0"
     inkscape:pageshadow="2"
     inkscape:zoom="2.2814815"
     inkscape:cx="355.96753"
     inkscape:cy="140"
     inkscape:document-units="px"
     inkscape:current-layer="layer1"
     showgrid="false"
     inkscape:window-width="1920"
     inkscape:window-height="1147"
     inkscape:window-x="1672"
     inkscape:window-y="-8"
     inkscape:window-maximized="1"
     fit-margin-top="0"
     fit-margin-left="0"
     fit-margin-right="0"
     fit-margin-bottom="0" />
  <metadata
     id="metadata3045">
    <rdf:RDF>
      <cc:Work
         rdf:about="">
        <dc:format>image/svg+xml</dc:format>
        <dc:type
           rdf:resource="http://purl.org/dc/dcmitype/StillImage" />
        <dc:title></dc:title>
      </cc:Work>
    </rdf:RDF>
  </metadata>
  <g
     inkscape:label="Layer 1"
     inkscape:groupmode="layer"
     id="layer1"
     transform="translate(-6.45205,-7.26915)">
    <g
       style="fill-rule:evenodd"
       id="g3050"
       transform="matrix(1.25,0,0,1.25,-177.6092,-533.6671)">
      <g
         id="g3052">
        <g
           id="g3054">
          <g
             id="g3056">
            <g
               id="g3058">
              <g
                 id="g4489">
                <g
                   id="g4469" />
                <path
                   id="path3128"
                   style="fill:#666666;stroke:none;fill-opacity:1"
                   d="m 470.125,557.229 -4.119,3.647 c -0.094,0.078 -0.182,0.139 -0.268,0.186 -0.084,0.045 -0.172,0.082 -0.261,0.108 -0.09,0.025 -0.186,0.042 -0.293,0.051 -0.106,0.008 -0.223,0.012 -0.35,0.012 l -2.551,0 2.551,-3.455 c 0.092,-0.128 0.184,-0.227 0.273,-0.299 0.09,-0.072 0.188,-0.127 0.293,-0.167 0.106,-0.038 0.227,-0.061 0.364,-0.07 0.136,-0.008 0.293,-0.013 0.472,-0.013 l 3.889,0 z m -11.553,5.266 c 0.162,0 0.301,0.007 0.414,0.02 0.116,0.012 0.219,0.044 0.313,0.089 0.094,0.046 0.183,0.108 0.269,0.186 0.084,0.075 0.178,0.178 0.28,0.305 l 9.283,11.795 c -0.035,-0.325 -0.061,-0.639 -0.078,-0.944 -0.016,-0.307 -0.026,-0.595 -0.026,-0.868 l 0,-10.583 3.379,0 0,18.501 -1.976,0 c -0.297,0 -0.547,-0.049 -0.752,-0.146 -0.203,-0.098 -0.403,-0.267 -0.6,-0.504 l -9.217,-11.718 c 0.026,0.299 0.045,0.589 0.057,0.875 0.014,0.283 0.019,0.549 0.019,0.796 l 0,10.697 -3.378,0 0,-18.501 2.013,0 z m -13.961,15.441 c 0.621,0 1.178,-0.104 1.67,-0.312 0.494,-0.209 0.91,-0.504 1.25,-0.887 0.34,-0.383 0.6,-0.845 0.778,-1.389 0.179,-0.544 0.267,-1.157 0.267,-1.836 l 0,-11.017 3.826,0 0,11.017 c 0,1.122 -0.181,2.152 -0.543,3.091 -0.361,0.94 -0.877,1.75 -1.548,2.429 -0.672,0.682 -1.487,1.212 -2.448,1.595 -0.961,0.383 -2.045,0.574 -3.252,0.574 -1.207,0 -2.293,-0.191 -3.258,-0.574 -0.964,-0.384 -1.783,-0.913 -2.453,-1.595 -0.672,-0.68 -1.189,-1.488 -1.55,-2.429 -0.36,-0.939 -0.541,-1.969 -0.541,-3.091 l 0,-11.017 3.824,0 0,11.017 c 0,0.679 0.09,1.292 0.267,1.836 0.18,0.544 0.44,1.006 0.78,1.389 0.34,0.383 0.756,0.678 1.248,0.887 0.494,0.208 1.054,0.312 1.683,0.312 z m -20.654,-6.681 1.963,0 c 0.621,0 1.156,-0.079 1.607,-0.236 0.45,-0.158 0.821,-0.375 1.11,-0.65 0.287,-0.276 0.5,-0.601 0.636,-0.974 0.135,-0.375 0.204,-0.784 0.204,-1.226 0,-0.875 -0.291,-1.555 -0.874,-2.04 -0.582,-0.485 -1.468,-0.726 -2.658,-0.726 l -1.988,0 0,5.852 z m 0,2.69 0,7.051 -3.826,0 0,-18.501 5.814,0 c 1.293,0 2.397,0.135 3.315,0.403 0.918,0.267 1.672,0.639 2.258,1.116 0.585,0.476 1.015,1.044 1.287,1.701 0.271,0.66 0.408,1.384 0.408,2.174 0,0.612 -0.088,1.192 -0.262,1.741 -0.174,0.548 -0.426,1.047 -0.758,1.497 -0.332,0.451 -0.74,0.85 -1.224,1.199 -0.485,0.349 -1.041,0.629 -1.67,0.841 0.246,0.137 0.478,0.3 0.695,0.491 0.217,0.192 0.41,0.419 0.58,0.682 l 4.309,6.656 -3.455,0 c -0.647,0 -1.114,-0.246 -1.403,-0.74 l -3.519,-5.673 c -0.145,-0.222 -0.303,-0.383 -0.477,-0.485 -0.176,-0.102 -0.431,-0.152 -0.771,-0.152 l -1.301,-10e-4 z m -11.055,-2.206 c 0,-0.968 -0.127,-1.838 -0.382,-2.607 -0.255,-0.77 -0.623,-1.424 -1.103,-1.963 -0.48,-0.54 -1.063,-0.951 -1.747,-1.236 -0.684,-0.287 -1.46,-0.428 -2.327,-0.428 -0.866,0 -1.644,0.142 -2.333,0.428 -0.688,0.285 -1.273,0.696 -1.753,1.236 -0.48,0.539 -0.848,1.193 -1.103,1.963 -0.255,0.769 -0.383,1.639 -0.383,2.607 0,0.978 0.128,1.851 0.383,2.62 0.255,0.77 0.623,1.423 1.103,1.957 0.48,0.536 1.065,0.948 1.753,1.232 0.689,0.284 1.467,0.426 2.333,0.426 0.867,0 1.643,-0.142 2.327,-0.426 0.684,-0.284 1.267,-0.696 1.747,-1.232 0.48,-0.535 0.848,-1.187 1.103,-1.957 0.255,-0.769 0.382,-1.642 0.382,-2.62 z m 3.915,0 c 0,1.352 -0.228,2.607 -0.682,3.761 -0.455,1.156 -1.097,2.156 -1.926,2.997 -0.829,0.842 -1.825,1.503 -2.99,1.982 -1.164,0.481 -2.456,0.722 -3.876,0.722 -1.419,0 -2.711,-0.241 -3.876,-0.722 -1.164,-0.479 -2.163,-1.14 -2.996,-1.982 -0.833,-0.841 -1.477,-1.841 -1.931,-2.997 -0.456,-1.154 -0.683,-2.409 -0.683,-3.761 0,-1.351 0.227,-2.602 0.683,-3.755 0.454,-1.151 1.098,-2.147 1.931,-2.99 0.833,-0.841 1.832,-1.501 2.996,-1.982 1.165,-0.48 2.457,-0.72 3.876,-0.72 1.42,0 2.712,0.24 3.876,0.72 1.165,0.481 2.161,1.144 2.99,1.989 0.829,0.847 1.471,1.845 1.926,2.996 0.454,1.152 0.682,2.399 0.682,3.742 z m -19.648,-9.244 0,3.086 -5.406,0 0,15.415 -3.838,0 0,-15.415 -5.405,0 0,-3.086 14.649,0 z m -37.453,0.02 c 0.115,0.012 0.219,0.044 0.312,0.089 0.094,0.046 0.183,0.108 0.268,0.186 0.085,0.075 0.179,0.178 0.281,0.305 l 9.282,11.795 c -0.034,-0.325 -0.06,-0.639 -0.077,-0.944 -0.017,-0.307 -0.025,-0.595 -0.025,-0.868 l 0,-10.583 3.378,0 0,18.501 -1.976,0 c -0.297,0 -0.548,-0.049 -0.752,-0.146 -0.204,-0.098 -0.404,-0.267 -0.599,-0.504 l -9.219,-11.718 c 0.026,0.299 0.045,0.589 0.058,0.875 0.013,0.283 0.019,0.549 0.019,0.796 l 0,10.697 -3.379,0 0,-18.501 2.015,0 c 0.161,0 0.299,0.007 0.414,0.02 z m -6.815,18.481 -3.85,0 0,-18.501 3.85,0 0,18.501 z m 142.077,-40.401 0,7.1 -3.827,0 0,-7.1 -6.718,-11.399 3.365,0 c 0.332,0 0.597,0.079 0.797,0.236 0.201,0.157 0.359,0.36 0.478,0.606 l 3.035,5.826 c 0.204,0.392 0.389,0.756 0.555,1.097 0.166,0.341 0.309,0.68 0.428,1.019 0.236,-0.653 0.556,-1.36 0.955,-2.116 l 3.01,-5.826 c 0.101,-0.205 0.254,-0.396 0.459,-0.575 0.203,-0.177 0.466,-0.267 0.791,-0.267 l 3.39,0 -6.718,11.399 z m -11.182,-11.399 0,3.085 -5.406,0 0,15.414 -3.838,0 0,-15.414 -5.407,0 0,-3.085 14.651,0 z m -17.481,18.499 -3.849,0 0,-18.499 3.849,0 0,18.499 z m -8.388,-14.955 c -0.119,0.197 -0.24,0.338 -0.364,0.427 -0.123,0.09 -0.283,0.135 -0.478,0.135 -0.188,-10e-4 -0.389,-0.066 -0.606,-0.199 -0.216,-0.13 -0.47,-0.274 -0.759,-0.426 -0.289,-0.154 -0.619,-0.296 -0.994,-0.428 -0.373,-0.131 -0.813,-0.197 -1.313,-0.197 -0.885,0 -1.547,0.197 -1.99,0.593 -0.442,0.396 -0.662,0.913 -0.662,1.548 0,0.409 0.121,0.746 0.363,1.015 0.242,0.267 0.561,0.499 0.957,0.694 0.395,0.197 0.842,0.369 1.344,0.523 0.502,0.153 1.015,0.322 1.543,0.504 0.527,0.182 1.041,0.398 1.543,0.644 0.502,0.246 0.951,0.557 1.345,0.93 0.395,0.374 0.713,0.832 0.956,1.372 0.244,0.54 0.363,1.195 0.363,1.969 0,0.843 -0.147,1.631 -0.44,2.366 -0.293,0.734 -0.715,1.376 -1.267,1.925 -0.553,0.548 -1.235,0.978 -2.047,1.294 -0.813,0.313 -1.733,0.47 -2.76,0.47 -0.588,0 -1.172,-0.059 -1.754,-0.178 -0.582,-0.119 -1.142,-0.284 -1.683,-0.497 -0.539,-0.212 -1.047,-0.467 -1.524,-0.765 -0.474,-0.298 -0.892,-0.629 -1.248,-0.994 l 1.121,-1.81 c 0.094,-0.136 0.217,-0.25 0.369,-0.339 0.155,-0.089 0.315,-0.133 0.485,-0.133 0.23,0 0.472,0.085 0.726,0.254 0.256,0.171 0.549,0.358 0.881,0.561 0.332,0.205 0.715,0.392 1.154,0.563 0.438,0.168 0.961,0.254 1.575,0.254 0.892,0 1.582,-0.205 2.072,-0.612 0.488,-0.409 0.732,-1.016 0.732,-1.823 0,-0.468 -0.121,-0.847 -0.363,-1.135 -0.242,-0.288 -0.559,-0.532 -0.949,-0.726 -0.393,-0.197 -0.838,-0.365 -1.34,-0.504 -0.502,-0.14 -1.016,-0.296 -1.543,-0.466 -0.527,-0.17 -1.041,-0.373 -1.543,-0.612 -0.5,-0.238 -0.947,-0.552 -1.338,-0.943 -0.39,-0.392 -0.707,-0.876 -0.949,-1.454 -0.242,-0.577 -0.363,-1.296 -0.363,-2.154 0,-0.69 0.134,-1.357 0.406,-2.003 0.273,-0.645 0.672,-1.22 1.199,-1.72 0.528,-0.502 1.176,-0.906 1.945,-1.211 0.768,-0.307 1.651,-0.459 2.645,-0.459 1.113,0 2.145,0.171 3.092,0.515 0.949,0.345 1.75,0.823 2.404,1.435 l -0.943,1.797 z m -23.27,5.216 1.965,0 c 0.619,0 1.154,-0.078 1.606,-0.237 0.451,-0.157 0.82,-0.374 1.109,-0.65 0.289,-0.276 0.502,-0.6 0.637,-0.974 0.136,-0.375 0.205,-0.784 0.205,-1.226 0,-0.875 -0.291,-1.556 -0.873,-2.04 -0.582,-0.484 -1.469,-0.726 -2.659,-0.726 l -1.99,0 0,5.853 z m 0,2.689 0,7.05 -3.824,0 0,-18.499 5.814,0 c 1.291,0 2.397,0.134 3.315,0.402 0.918,0.268 1.67,0.64 2.256,1.115 0.588,0.477 1.015,1.044 1.289,1.703 0.271,0.659 0.408,1.383 0.408,2.173 0,0.612 -0.088,1.192 -0.262,1.741 -0.175,0.548 -0.427,1.048 -0.759,1.497 -0.331,0.451 -0.739,0.851 -1.223,1.199 -0.484,0.349 -1.043,0.629 -1.67,0.841 0.246,0.137 0.477,0.3 0.693,0.491 0.217,0.192 0.41,0.419 0.58,0.684 l 4.311,6.653 -3.455,0 c -0.647,0 -1.115,-0.245 -1.402,-0.739 l -3.52,-5.673 c -0.145,-0.222 -0.305,-0.383 -0.479,-0.485 -0.173,-0.102 -0.431,-0.152 -0.771,-0.152 l -1.301,-10e-4 z m -7.189,-11.449 0,2.997 -7.932,0 0,4.755 6.172,0 0,2.895 -6.172,0 0,4.858 7.932,0 0,2.994 -11.783,0 0,-18.499 11.783,0 z m -32.362,0 3.086,0 c 0.331,0 0.601,0.079 0.809,0.236 0.209,0.157 0.364,0.36 0.466,0.606 l 4.004,10.658 c 0.153,0.401 0.303,0.835 0.452,1.307 0.149,0.472 0.283,0.968 0.402,1.485 0.11,-0.517 0.233,-1.013 0.369,-1.485 0.137,-0.472 0.281,-0.906 0.434,-1.306 l 3.978,-10.659 c 0.085,-0.212 0.236,-0.406 0.453,-0.58 0.216,-0.174 0.486,-0.262 0.809,-0.262 l 3.098,0 -7.446,18.499 -3.467,0 -7.447,-18.499 z m -2.218,18.499 -3.85,0 0,-18.499 3.85,0 0,18.499 z m -21.656,-18.48 c 0.115,0.013 0.219,0.043 0.313,0.089 0.093,0.047 0.183,0.108 0.267,0.186 0.085,0.076 0.179,0.178 0.281,0.305 l 9.282,11.795 c -0.034,-0.324 -0.06,-0.639 -0.077,-0.944 -0.017,-0.307 -0.025,-0.595 -0.025,-0.868 l 0,-10.582 3.379,0 0,18.499 -1.977,0 c -0.297,0 -0.548,-0.048 -0.752,-0.146 -0.204,-0.097 -0.403,-0.266 -0.599,-0.502 l -9.219,-11.719 c 0.026,0.299 0.045,0.589 0.058,0.875 0.013,0.283 0.019,0.55 0.019,0.796 l 0,10.696 -3.379,0 0,-18.499 2.015,0 c 0.161,0 0.3,0.007 0.414,0.019 z m -14.375,15.421 c 0.62,0 1.177,-0.104 1.67,-0.312 0.493,-0.209 0.91,-0.504 1.249,-0.887 0.34,-0.382 0.599,-0.845 0.778,-1.389 0.179,-0.543 0.268,-1.156 0.268,-1.836 l 0,-11.016 3.825,0 0,11.016 c 0,1.122 -0.181,2.153 -0.542,3.093 -0.361,0.938 -0.877,1.748 -1.549,2.427 -0.672,0.68 -1.488,1.212 -2.448,1.595 -0.961,0.383 -2.045,0.572 -3.251,0.572 -1.207,0 -2.294,-0.189 -3.258,-0.572 -0.965,-0.384 -1.783,-0.915 -2.454,-1.595 -0.672,-0.679 -1.188,-1.488 -1.549,-2.427 -0.362,-0.94 -0.542,-1.971 -0.542,-3.093 l 0,-11.016 3.824,0 0,11.016 c 0,0.68 0.09,1.293 0.268,1.836 0.179,0.544 0.438,1.008 0.778,1.389 0.34,0.383 0.757,0.678 1.25,0.887 0.492,0.208 1.054,0.312 1.683,0.312 z m 294.072,-45.195 c -0.119,0.195 -0.241,0.338 -0.364,0.427 -0.123,0.089 -0.281,0.133 -0.476,0.133 -0.188,0 -0.391,-0.065 -0.608,-0.197 -0.214,-0.132 -0.468,-0.274 -0.757,-0.428 -0.289,-0.152 -0.622,-0.294 -0.995,-0.426 -0.375,-0.132 -0.812,-0.198 -1.312,-0.198 -0.885,0 -1.549,0.198 -1.99,0.593 -0.442,0.395 -0.662,0.911 -0.662,1.549 0,0.408 0.121,0.746 0.363,1.014 0.242,0.267 0.56,0.499 0.955,0.695 0.396,0.195 0.844,0.369 1.346,0.522 0.502,0.154 1.015,0.321 1.543,0.504 0.527,0.183 1.041,0.398 1.543,0.644 0.502,0.247 0.949,0.557 1.345,0.93 0.395,0.375 0.713,0.832 0.955,1.372 0.243,0.539 0.364,1.196 0.364,1.969 0,0.842 -0.147,1.63 -0.44,2.366 -0.293,0.735 -0.717,1.377 -1.269,1.924 -0.551,0.549 -1.235,0.98 -2.045,1.294 -0.813,0.315 -1.733,0.472 -2.762,0.472 -0.586,0 -1.17,-0.059 -1.752,-0.178 -0.582,-0.119 -1.144,-0.285 -1.684,-0.498 -0.539,-0.211 -1.046,-0.467 -1.523,-0.765 -0.477,-0.297 -0.893,-0.628 -1.25,-0.994 l 1.123,-1.81 c 0.094,-0.136 0.217,-0.249 0.369,-0.338 0.153,-0.09 0.315,-0.134 0.485,-0.134 0.23,0 0.472,0.085 0.726,0.255 0.256,0.17 0.549,0.357 0.881,0.561 0.33,0.204 0.715,0.391 1.152,0.561 0.44,0.17 0.963,0.255 1.577,0.255 0.892,0 1.582,-0.204 2.07,-0.612 0.49,-0.408 0.734,-1.016 0.734,-1.823 0,-0.467 -0.121,-0.846 -0.363,-1.135 -0.242,-0.289 -0.561,-0.531 -0.951,-0.727 -0.391,-0.195 -0.836,-0.363 -1.338,-0.504 -0.502,-0.139 -1.016,-0.295 -1.543,-0.465 -0.527,-0.169 -1.041,-0.373 -1.543,-0.612 -0.502,-0.238 -0.947,-0.553 -1.338,-0.943 -0.393,-0.391 -0.709,-0.876 -0.951,-1.454 -0.242,-0.577 -0.363,-1.296 -0.363,-2.155 0,-0.688 0.136,-1.355 0.408,-2.001 0.271,-0.646 0.672,-1.22 1.199,-1.721 0.527,-0.502 1.176,-0.905 1.943,-1.212 0.77,-0.306 1.653,-0.459 2.647,-0.459 1.113,0 2.144,0.173 3.092,0.517 0.947,0.343 1.748,0.822 2.402,1.434 l -0.943,1.798 z m -21.967,11.896 c 0.619,0 1.176,-0.105 1.67,-0.313 0.492,-0.208 0.908,-0.504 1.25,-0.886 0.34,-0.383 0.599,-0.846 0.777,-1.389 0.178,-0.544 0.268,-1.157 0.268,-1.836 l 0,-11.017 3.824,0 0,11.017 c 0,1.121 -0.18,2.152 -0.541,3.092 -0.361,0.938 -0.879,1.749 -1.549,2.428 -0.672,0.68 -1.488,1.211 -2.449,1.594 -0.959,0.382 -2.043,0.573 -3.25,0.573 -1.206,0 -2.293,-0.191 -3.258,-0.573 -0.965,-0.383 -1.783,-0.914 -2.455,-1.594 -0.672,-0.68 -1.188,-1.49 -1.549,-2.428 -0.361,-0.94 -0.541,-1.971 -0.541,-3.092 l 0,-11.017 3.825,0 0,11.017 c 0,0.679 0.089,1.292 0.267,1.836 0.178,0.543 0.437,1.006 0.777,1.389 0.34,0.382 0.758,0.678 1.25,0.886 0.492,0.208 1.055,0.313 1.684,0.313 z m -12.29,-1.493 c 0.212,0 0.389,0.077 0.534,0.231 l 1.518,1.619 c -0.748,0.951 -1.678,1.674 -2.788,2.167 -1.109,0.493 -2.427,0.739 -3.957,0.739 -1.386,0 -2.63,-0.235 -3.736,-0.707 -1.105,-0.472 -2.045,-1.129 -2.818,-1.97 -0.774,-0.842 -1.369,-1.841 -1.785,-2.997 -0.416,-1.155 -0.625,-2.418 -0.625,-3.786 0,-0.918 0.099,-1.792 0.3,-2.62 0.2,-0.829 0.491,-1.592 0.873,-2.289 0.384,-0.696 0.844,-1.326 1.383,-1.887 0.539,-0.561 1.151,-1.039 1.83,-1.434 0.68,-0.396 1.422,-0.697 2.225,-0.905 0.803,-0.209 1.66,-0.313 2.57,-0.313 0.68,0 1.323,0.059 1.93,0.179 0.609,0.119 1.176,0.285 1.703,0.497 0.527,0.213 1.014,0.469 1.459,0.771 0.447,0.302 0.85,0.631 1.205,0.988 l -1.287,1.76 c -0.076,0.11 -0.174,0.208 -0.293,0.293 -0.119,0.085 -0.281,0.128 -0.484,0.128 -0.205,0 -0.41,-0.072 -0.619,-0.217 -0.209,-0.144 -0.463,-0.306 -0.766,-0.484 -0.301,-0.179 -0.68,-0.34 -1.135,-0.485 -0.453,-0.145 -1.029,-0.217 -1.726,-0.217 -0.773,0 -1.485,0.141 -2.129,0.421 -0.647,0.281 -1.202,0.686 -1.664,1.217 -0.463,0.532 -0.823,1.184 -1.079,1.957 -0.253,0.774 -0.382,1.654 -0.382,2.64 0,0.994 0.138,1.881 0.416,2.658 0.275,0.778 0.654,1.435 1.132,1.97 0.481,0.535 1.043,0.942 1.684,1.218 0.643,0.276 1.328,0.414 2.061,0.414 0.431,0 0.826,-0.021 1.177,-0.063 0.355,-0.043 0.68,-0.116 0.983,-0.217 0.301,-0.102 0.586,-0.234 0.853,-0.396 0.268,-0.161 0.539,-0.365 0.811,-0.611 0.094,-0.077 0.191,-0.141 0.293,-0.192 0.101,-0.051 0.213,-0.077 0.333,-0.077 z m -16.984,4.552 -3.851,0 0,-18.5 3.851,0 0,18.5 z m -21.656,-18.48 c 0.116,0.012 0.219,0.041 0.313,0.089 0.093,0.046 0.181,0.108 0.267,0.184 0.084,0.077 0.178,0.179 0.28,0.307 l 9.283,11.794 c -0.035,-0.324 -0.061,-0.638 -0.076,-0.945 -0.017,-0.306 -0.026,-0.594 -0.026,-0.866 l 0,-10.583 3.377,0 0,18.5 -1.974,0 c -0.299,0 -0.549,-0.049 -0.752,-0.147 -0.205,-0.097 -0.405,-0.265 -0.6,-0.502 l -9.218,-11.718 c 0.025,0.298 0.044,0.589 0.056,0.874 0.014,0.284 0.019,0.55 0.019,0.797 l 10e-4,10.696 -3.38,0 0,-18.5 2.016,0 c 0.161,0 0.299,0.007 0.414,0.02 z m -15.675,8.74 1.963,0 c 0.621,0 1.157,-0.08 1.608,-0.237 0.449,-0.157 0.818,-0.373 1.107,-0.65 0.289,-0.275 0.502,-0.6 0.638,-0.975 0.135,-0.375 0.203,-0.782 0.203,-1.224 0,-0.875 -0.29,-1.556 -0.872,-2.04 -0.582,-0.485 -1.469,-0.727 -2.658,-0.727 l -1.989,0 0,5.853 z m 0,2.689 0,7.051 -3.826,0 0,-18.5 5.815,0 c 1.293,0 2.396,0.134 3.314,0.401 0.918,0.269 1.671,0.641 2.257,1.117 0.586,0.475 1.016,1.043 1.287,1.702 0.272,0.658 0.408,1.383 0.408,2.173 0,0.612 -0.088,1.193 -0.261,1.741 -0.174,0.548 -0.426,1.048 -0.758,1.498 -0.332,0.451 -0.741,0.85 -1.225,1.198 -0.484,0.349 -1.041,0.63 -1.67,0.842 0.246,0.136 0.479,0.3 0.696,0.491 0.216,0.191 0.41,0.418 0.58,0.682 l 4.308,6.655 -3.455,0 c -0.645,0 -1.113,-0.246 -1.402,-0.739 l -3.519,-5.674 c -0.144,-0.221 -0.303,-0.382 -0.478,-0.485 -0.174,-0.101 -0.43,-0.153 -0.77,-0.153 l -1.301,0 z m -7.191,-11.449 0,2.996 -7.93,0 0,4.756 6.17,0 0,2.894 -6.17,0 0,4.858 7.93,0 0,2.996 -11.781,0 0,-18.5 11.781,0 z m -24.455,9.206 2.424,0 c 1.197,0 2.076,-0.289 2.633,-0.867 0.556,-0.578 0.834,-1.368 0.834,-2.372 0,-0.459 -0.071,-0.877 -0.209,-1.256 -0.141,-0.378 -0.354,-0.701 -0.639,-0.969 -0.285,-0.267 -0.643,-0.473 -1.076,-0.618 -0.434,-0.145 -0.95,-0.217 -1.543,-0.217 l -2.424,0 0,6.299 z m 0,2.932 0,6.362 -3.824,0 0,-18.5 6.248,0 c 1.265,0 2.359,0.148 3.283,0.446 0.922,0.298 1.68,0.712 2.275,1.243 0.596,0.532 1.035,1.163 1.321,1.894 0.283,0.731 0.425,1.526 0.425,2.384 0,0.91 -0.148,1.743 -0.445,2.499 -0.299,0.756 -0.748,1.407 -1.351,1.951 -0.604,0.544 -1.366,0.967 -2.284,1.268 -0.918,0.302 -1.992,0.453 -3.224,0.453 l -2.424,0 z m -11.053,-2.894 c 0,-0.969 -0.129,-1.838 -0.383,-2.607 -0.255,-0.77 -0.623,-1.424 -1.103,-1.964 -0.481,-0.539 -1.063,-0.952 -1.746,-1.237 -0.684,-0.285 -1.461,-0.427 -2.326,-0.427 -0.868,0 -1.647,0.142 -2.334,0.427 -0.69,0.285 -1.274,0.698 -1.754,1.237 -0.481,0.54 -0.848,1.194 -1.102,1.964 -0.256,0.769 -0.383,1.638 -0.383,2.607 0,0.978 0.127,1.851 0.383,2.62 0.254,0.77 0.621,1.422 1.102,1.957 0.48,0.535 1.064,0.946 1.754,1.231 0.687,0.284 1.466,0.427 2.334,0.427 0.865,0 1.642,-0.143 2.326,-0.427 0.683,-0.286 1.265,-0.696 1.746,-1.231 0.48,-0.535 0.848,-1.187 1.103,-1.957 0.254,-0.769 0.383,-1.642 0.383,-2.62 z m 3.914,0 c 0,1.352 -0.228,2.606 -0.681,3.761 -0.455,1.156 -1.098,2.155 -1.926,2.996 -0.828,0.842 -1.826,1.503 -2.99,1.983 -1.164,0.481 -2.457,0.72 -3.875,0.72 -1.42,0 -2.713,-0.239 -3.877,-0.72 -1.164,-0.48 -2.164,-1.141 -2.996,-1.983 -0.834,-0.841 -1.477,-1.84 -1.932,-2.996 -0.455,-1.155 -0.682,-2.409 -0.682,-3.761 0,-1.352 0.227,-2.603 0.682,-3.755 0.455,-1.151 1.098,-2.148 1.932,-2.99 0.832,-0.842 1.832,-1.502 2.996,-1.982 1.164,-0.481 2.457,-0.721 3.877,-0.721 1.418,0 2.711,0.24 3.875,0.721 1.164,0.48 2.162,1.143 2.99,1.989 0.828,0.845 1.471,1.844 1.926,2.996 0.453,1.151 0.681,2.399 0.681,3.742 z m -22.185,4.704 c 0.213,0 0.39,0.077 0.535,0.231 l 1.517,1.619 c -0.748,0.951 -1.675,1.674 -2.785,2.167 -1.109,0.493 -2.429,0.739 -3.959,0.739 -1.386,0 -2.631,-0.235 -3.736,-0.707 -1.106,-0.472 -2.045,-1.129 -2.818,-1.97 -0.774,-0.842 -1.368,-1.841 -1.786,-2.997 -0.416,-1.155 -0.623,-2.418 -0.623,-3.786 0,-0.918 0.1,-1.792 0.299,-2.62 0.199,-0.829 0.49,-1.592 0.873,-2.289 0.383,-0.696 0.844,-1.326 1.383,-1.887 0.541,-0.561 1.15,-1.039 1.83,-1.434 0.68,-0.396 1.422,-0.697 2.225,-0.905 0.804,-0.209 1.66,-0.313 2.57,-0.313 0.68,0 1.322,0.059 1.932,0.179 0.607,0.119 1.174,0.285 1.701,0.497 0.527,0.213 1.014,0.469 1.461,0.771 0.445,0.302 0.847,0.631 1.203,0.988 l -1.287,1.76 c -0.076,0.11 -0.174,0.208 -0.293,0.293 -0.119,0.085 -0.281,0.128 -0.484,0.128 -0.204,0 -0.411,-0.072 -0.62,-0.217 -0.207,-0.144 -0.463,-0.306 -0.763,-0.484 -0.303,-0.179 -0.68,-0.34 -1.135,-0.485 -0.455,-0.145 -1.031,-0.217 -1.729,-0.217 -0.773,0 -1.482,0.141 -2.128,0.421 -0.647,0.281 -1.202,0.686 -1.665,1.217 -0.462,0.532 -0.822,1.184 -1.078,1.957 -0.254,0.774 -0.381,1.654 -0.381,2.64 0,0.994 0.137,1.881 0.415,2.658 0.275,0.778 0.654,1.435 1.134,1.97 0.481,0.535 1.041,0.942 1.682,1.218 0.643,0.276 1.328,0.414 2.06,0.414 0.434,0 0.827,-0.021 1.18,-0.063 0.352,-0.043 0.68,-0.116 0.981,-0.217 0.302,-0.102 0.588,-0.234 0.855,-0.396 0.268,-0.161 0.537,-0.365 0.809,-0.611 0.093,-0.077 0.191,-0.141 0.293,-0.192 0.103,-0.051 0.213,-0.077 0.332,-0.077 z M 476.92,499.441 c -0.119,0.195 -0.24,0.338 -0.363,0.427 -0.123,0.089 -0.284,0.133 -0.479,0.133 -0.187,0 -0.389,-0.065 -0.605,-0.197 -0.217,-0.132 -0.469,-0.274 -0.758,-0.428 -0.289,-0.152 -0.621,-0.294 -0.996,-0.426 -0.373,-0.132 -0.811,-0.198 -1.313,-0.198 -0.885,0 -1.547,0.198 -1.988,0.593 -0.443,0.395 -0.664,0.911 -0.664,1.549 0,0.408 0.121,0.746 0.363,1.014 0.242,0.267 0.563,0.499 0.957,0.695 0.395,0.195 0.844,0.369 1.346,0.522 0.5,0.154 1.016,0.321 1.543,0.504 0.525,0.183 1.041,0.398 1.541,0.644 0.502,0.247 0.951,0.557 1.346,0.93 0.396,0.375 0.714,0.832 0.957,1.372 0.242,0.539 0.363,1.196 0.363,1.969 0,0.842 -0.147,1.63 -0.44,2.366 -0.293,0.735 -0.716,1.377 -1.269,1.924 -0.553,0.549 -1.234,0.98 -2.047,1.294 -0.811,0.315 -1.732,0.472 -2.76,0.472 -0.586,0 -1.172,-0.059 -1.754,-0.178 -0.582,-0.119 -1.142,-0.285 -1.681,-0.498 -0.541,-0.211 -1.049,-0.467 -1.524,-0.765 -0.476,-0.297 -0.892,-0.628 -1.25,-0.994 l 1.121,-1.81 c 0.094,-0.136 0.217,-0.249 0.371,-0.338 0.153,-0.09 0.315,-0.134 0.485,-0.134 0.228,0 0.471,0.085 0.726,0.255 0.254,0.17 0.549,0.357 0.879,0.561 0.332,0.204 0.717,0.391 1.155,0.561 0.437,0.17 0.963,0.255 1.574,0.255 0.892,0 1.584,-0.204 2.072,-0.612 0.488,-0.408 0.733,-1.016 0.733,-1.823 0,-0.467 -0.122,-0.846 -0.364,-1.135 -0.242,-0.289 -0.558,-0.531 -0.949,-0.727 -0.391,-0.195 -0.838,-0.363 -1.338,-0.504 -0.502,-0.139 -1.017,-0.295 -1.543,-0.465 -0.527,-0.169 -1.043,-0.373 -1.543,-0.612 -0.502,-0.238 -0.949,-0.553 -1.34,-0.943 -0.39,-0.391 -0.707,-0.876 -0.949,-1.454 -0.242,-0.577 -0.363,-1.296 -0.363,-2.155 0,-0.688 0.135,-1.355 0.408,-2.001 0.272,-0.646 0.672,-1.22 1.197,-1.721 0.528,-0.502 1.176,-0.905 1.946,-1.212 0.769,-0.306 1.65,-0.459 2.646,-0.459 1.113,0 2.143,0.173 3.092,0.517 0.947,0.343 1.748,0.822 2.402,1.434 l -0.943,1.798 z m -21.969,11.896 c 0.621,0 1.178,-0.105 1.67,-0.313 0.494,-0.208 0.91,-0.504 1.25,-0.886 0.34,-0.383 0.6,-0.846 0.777,-1.389 0.18,-0.544 0.268,-1.157 0.268,-1.836 l 0,-11.017 3.826,0 0,11.017 c 0,1.121 -0.181,2.152 -0.543,3.092 -0.361,0.938 -0.877,1.749 -1.549,2.428 -0.672,0.68 -1.486,1.211 -2.447,1.594 -0.961,0.382 -2.045,0.573 -3.252,0.573 -1.207,0 -2.293,-0.191 -3.258,-0.573 -0.965,-0.383 -1.783,-0.914 -2.453,-1.594 -0.672,-0.68 -1.187,-1.49 -1.549,-2.428 -0.361,-0.94 -0.543,-1.971 -0.543,-3.092 l 0,-11.017 3.825,0 0,11.017 c 0,0.679 0.089,1.292 0.269,1.836 0.178,0.543 0.438,1.006 0.778,1.389 0.339,0.382 0.755,0.678 1.25,0.886 0.492,0.208 1.052,0.313 1.681,0.313 z m -21.254,-3.966 5.508,0 -2.002,-5.661 c -0.119,-0.298 -0.244,-0.646 -0.375,-1.046 -0.133,-0.399 -0.262,-0.828 -0.389,-1.288 -0.119,0.468 -0.242,0.904 -0.371,1.308 -0.127,0.403 -0.25,0.754 -0.369,1.052 l -2.002,5.635 z m 11.934,7.025 -2.971,0 c -0.33,0 -0.601,-0.078 -0.808,-0.235 -0.209,-0.158 -0.364,-0.36 -0.465,-0.606 l -1.25,-3.532 -7.369,0 -1.25,3.532 c -0.086,0.212 -0.235,0.405 -0.448,0.58 -0.213,0.174 -0.48,0.261 -0.802,0.261 l -2.997,0 7.229,-18.5 3.914,0 7.217,18.5 z m -26.188,-3.111 7.153,0 0,3.111 -10.978,0 0,-18.5 3.825,0 0,15.389 z m -11.054,-6.145 c 0,-0.969 -0.127,-1.838 -0.382,-2.607 -0.255,-0.77 -0.623,-1.424 -1.103,-1.964 -0.481,-0.539 -1.063,-0.952 -1.747,-1.237 -0.684,-0.285 -1.46,-0.427 -2.327,-0.427 -0.867,0 -1.644,0.142 -2.333,0.427 -0.688,0.285 -1.273,0.698 -1.753,1.237 -0.48,0.54 -0.848,1.194 -1.103,1.964 -0.255,0.769 -0.383,1.638 -0.383,2.607 0,0.978 0.128,1.851 0.383,2.62 0.255,0.77 0.623,1.422 1.103,1.957 0.48,0.535 1.065,0.946 1.753,1.231 0.689,0.284 1.466,0.427 2.333,0.427 0.867,0 1.643,-0.143 2.327,-0.427 0.684,-0.286 1.266,-0.696 1.747,-1.231 0.48,-0.535 0.848,-1.187 1.103,-1.957 0.255,-0.769 0.382,-1.642 0.382,-2.62 z m 3.914,0 c 0,1.352 -0.227,2.606 -0.681,3.761 -0.456,1.156 -1.097,2.155 -1.926,2.996 -0.829,0.842 -1.825,1.503 -2.989,1.983 -1.166,0.481 -2.458,0.72 -3.877,0.72 -1.419,0 -2.711,-0.239 -3.876,-0.72 -1.164,-0.48 -2.163,-1.141 -2.996,-1.983 -0.833,-0.841 -1.477,-1.84 -1.932,-2.996 -0.455,-1.155 -0.682,-2.409 -0.682,-3.761 0,-1.352 0.227,-2.603 0.682,-3.755 0.455,-1.151 1.099,-2.148 1.932,-2.99 0.833,-0.842 1.832,-1.502 2.996,-1.982 1.165,-0.481 2.457,-0.721 3.876,-0.721 1.419,0 2.711,0.24 3.877,0.721 1.164,0.48 2.16,1.143 2.989,1.989 0.829,0.845 1.47,1.844 1.926,2.996 0.454,1.151 0.681,2.399 0.681,3.742 z m -22.184,4.704 c 0.212,0 0.39,0.077 0.535,0.231 l 1.517,1.619 c -0.748,0.951 -1.676,1.674 -2.786,2.167 -1.109,0.493 -2.428,0.739 -3.959,0.739 -1.385,0 -2.631,-0.235 -3.736,-0.707 -1.105,-0.472 -2.044,-1.129 -2.817,-1.97 -0.774,-0.842 -1.369,-1.841 -1.785,-2.997 -0.417,-1.155 -0.625,-2.418 -0.625,-3.786 0,-0.918 0.1,-1.792 0.3,-2.62 0.199,-0.829 0.49,-1.592 0.873,-2.289 0.383,-0.696 0.843,-1.326 1.384,-1.887 0.539,-0.561 1.149,-1.039 1.829,-1.434 0.68,-0.396 1.421,-0.697 2.225,-0.905 0.803,-0.209 1.659,-0.313 2.569,-0.313 0.68,0 1.324,0.059 1.932,0.179 0.607,0.119 1.174,0.285 1.702,0.497 0.527,0.213 1.014,0.469 1.46,0.771 0.446,0.302 0.847,0.631 1.204,0.988 l -1.287,1.76 c -0.077,0.11 -0.175,0.208 -0.294,0.293 -0.118,0.085 -0.28,0.128 -0.484,0.128 -0.204,0 -0.41,-0.072 -0.618,-0.217 -0.209,-0.144 -0.464,-0.306 -0.765,-0.484 -0.302,-0.179 -0.681,-0.34 -1.135,-0.485 -0.455,-0.145 -1.031,-0.217 -1.728,-0.217 -0.773,0 -1.483,0.141 -2.129,0.421 -0.646,0.281 -1.201,0.686 -1.664,1.217 -0.463,0.532 -0.822,1.184 -1.077,1.957 -0.255,0.774 -0.383,1.654 -0.383,2.64 0,0.994 0.139,1.881 0.414,2.658 0.277,0.778 0.655,1.435 1.135,1.97 0.481,0.535 1.042,0.942 1.683,1.218 0.642,0.276 1.328,0.414 2.059,0.414 0.434,0 0.827,-0.021 1.18,-0.063 0.353,-0.043 0.68,-0.116 0.982,-0.217 0.301,-0.102 0.586,-0.234 0.854,-0.396 0.268,-0.161 0.538,-0.365 0.81,-0.611 0.093,-0.077 0.191,-0.141 0.293,-0.192 0.102,-0.051 0.212,-0.077 0.332,-0.077 z m -16.984,4.552 -3.85,0 0,-18.5 3.85,0 0,18.5 z m -21.656,-18.48 c 0.115,0.012 0.219,0.041 0.313,0.089 0.094,0.046 0.183,0.108 0.268,0.184 0.085,0.077 0.178,0.179 0.28,0.307 l 9.283,11.794 c -0.035,-0.324 -0.06,-0.638 -0.077,-0.945 -0.017,-0.306 -0.026,-0.594 -0.026,-0.866 l 0,-10.583 3.379,0 0,18.5 -1.976,0 c -0.298,0 -0.549,-0.049 -0.753,-0.147 -0.203,-0.097 -0.403,-0.265 -0.599,-0.502 l -9.218,-11.718 c 0.025,0.298 0.044,0.589 0.058,0.874 0.012,0.284 0.019,0.55 0.019,0.797 l 0,10.696 -3.379,0 0,-18.5 2.014,0 c 0.162,0 0.3,0.007 0.414,0.02 z" />
              </g>
            </g>
            <g
               id="g3130">
              <path
                 inkscape:connector-curvature="0"
                 style="fill:#666666;fill-opacity:1;stroke:none"
                 d="m 253.411,475.21 c -35.181,0 -63.701,28.516 -63.701,63.701 0,27.867 17.894,51.554 42.818,60.199 1.667,-10.061 10.408,-17.733 20.942,-17.733 10.52,-10e-4 19.252,7.651 20.935,17.695 24.865,-8.678 42.704,-32.335 42.704,-60.161 0,-35.185 -28.517,-63.701 -63.698,-63.701 z"
                 id="path3132" />
              <path
                 inkscape:connector-curvature="0"
                 style="fill:#ffffff;fill-opacity:1;stroke:none"
                 d="m 274.639,538.871 c 0,11.725 -9.505,21.232 -21.23,21.232 -11.725,-10e-4 -21.231,-9.506 -21.231,-21.232 0,-11.727 9.506,-21.231 21.231,-21.231 11.725,0 21.23,9.504 21.23,21.231 z"
                 id="path3134" />
              <path
                 inkscape:connector-curvature="0"
                 style="fill:#98fb98;fill-opacity:1;stroke:none"
                 d="m 264.023,602.678 c 0,5.862 -4.752,10.616 -10.614,10.616 -5.863,0 -10.615,-4.754 -10.615,-10.616 0,-5.865 4.752,-10.617 10.615,-10.617 5.862,0 10.614,4.752 10.614,10.617 z"
                 id="path3136" />
            </g>
          </g>
          <path
             inkscape:connector-curvature="0"
             style="fill:none;stroke:none"
             d="m 147.249,655.755 547.391,0 0,-223.006 -547.391,0 0,223.006 z"
             id="path3138" />
        </g>
      </g>
    </g>
  </g>
</svg>
