<?xml version="1.0" encoding="UTF-8" standalone="no"?>
<!-- Generator: Adobe Illustrator 19.0.0, SVG Export Plug-In . SVG Version: 6.00 Build 0)  -->

<svg
   xmlns:dc="http://purl.org/dc/elements/1.1/"
   xmlns:cc="http://creativecommons.org/ns#"
   xmlns:rdf="http://www.w3.org/1999/02/22-rdf-syntax-ns#"
   xmlns:svg="http://www.w3.org/2000/svg"
   xmlns="http://www.w3.org/2000/svg"
   xmlns:sodipodi="http://sodipodi.sourceforge.net/DTD/sodipodi-0.dtd"
   xmlns:inkscape="http://www.inkscape.org/namespaces/inkscape"
   version="1.1"
   id="Capa_1"
   x="0px"
   y="0px"
   viewBox="0 0 512 512"
   style="enable-background:new 0 0 512 512;"
   xml:space="preserve"
   height="250"
   width="250"
   sodipodi:docname="pin.svg"
   inkscape:version="0.92.3 (2405546, 2018-03-11)"><metadata
   id="metadata49"><rdf:RDF><cc:Work
       rdf:about=""><dc:format>image/svg+xml</dc:format><dc:type
         rdf:resource="http://purl.org/dc/dcmitype/StillImage" /></cc:Work></rdf:RDF></metadata><defs
   id="defs47">
		
	</defs><sodipodi:namedview
   pagecolor="#ffffff"
   bordercolor="#666666"
   borderopacity="1"
   objecttolerance="10"
   gridtolerance="10"
   guidetolerance="10"
   inkscape:pageopacity="0"
   inkscape:pageshadow="2"
   inkscape:window-width="1600"
   inkscape:window-height="845"
   id="namedview45"
   showgrid="false"
   inkscape:zoom="2.3156645"
   inkscape:cx="125"
   inkscape:cy="49.79595"
   inkscape:window-x="0"
   inkscape:window-y="169"
   inkscape:window-maximized="1"
   inkscape:current-layer="g6" />
<g
   id="g6"
   style="fill:#efefef;fill-opacity:1">
	<path
   style="fill:#efefef;fill-opacity:1"
   inkscape:connector-curvature="0"
   id="path2"
   d="m 240.52382,0.40319082 c -99.252,0 -180.000003,80.74800118 -180.000003,179.99999918 0,33.534 9.289,66.26 26.869,94.652 l 142.885003,230.257 c 2.737,4.411 7.559,7.091 12.745,7.091 0.04,0 0.079,0 0.119,0 5.231,-0.041 10.063,-2.804 12.75,-7.292 l 139.243,-232.488 c 16.61,-27.792 25.389,-59.681 25.389,-92.22 0,-99.251998 -80.748,-179.99999918 -180,-179.99999918 z m 128.866,256.81799918 -126.594,211.368 -129.905,-209.34 c -14.633,-23.632 -22.567003,-50.896 -22.567003,-78.846 0,-82.71 67.490003,-150.199999 150.200003,-150.199999 82.71,0 150.1,67.489999 150.1,150.199999 0,27.121 -7.411,53.688 -21.234,76.818 z" />
<path
   style="opacity:1;fill:#666666;fill-opacity:1;stroke:none;stroke-width:1.4979248;stroke-linecap:round;stroke-linejoin:round;stroke-miterlimit:4;stroke-dasharray:none;stroke-dashoffset:0;stroke-opacity:1"
   d="M 176.61865,362.22327 C 140.37568,303.81562 108.64197,251.91738 106.09929,246.8938 100.51368,235.85829 94.97834,219.29327 92.5799,206.43578 c -2.377338,-12.74441 -2.376599,-39.68108 0.001,-52.62222 3.66383,-19.93827 13.64196,-43.51749 25.55702,-60.393547 7.71203,-10.923021 24.48227,-27.62707 35.7247,-35.583699 16.18715,-11.456144 36.20268,-20.213142 55.96879,-24.486908 14.80458,-3.201 39.9997,-3.681325 55.43863,-1.056897 48.0531,8.16844 89.49776,39.361401 110.43911,83.121051 19.45631,40.65643 19.81639,87.12138 0.99195,128.00001 -2.88745,6.2703 -131.53493,222.41726 -133.55014,224.38416 -0.35007,0.34169 -30.28982,-47.16683 -66.53276,-105.57446 z"
   id="path859"
   inkscape:connector-curvature="0" /></g>
<g
   id="g12">
	
</g>
<g
   id="g14">
</g>
<g
   id="g16">
</g>
<g
   id="g18">
</g>
<g
   id="g20">
</g>
<g
   id="g22">
</g>
<g
   id="g24">
</g>
<g
   id="g26">
</g>
<g
   id="g28">
</g>
<g
   id="g30">
</g>
<g
   id="g32">
</g>
<g
   id="g34">
</g>
<g
   id="g36">
</g>
<g
   id="g38">
</g>
<g
   id="g40">
</g>
<g
   id="g42">
</g>
</svg>